<?xml version="1.0" standalone="no"?>
<!DOCTYPE svg PUBLIC "-//W3C//DTD SVG 1.1//EN" "http://www.w3.org/Graphics/SVG/1.1/DTD/svg11.dtd" >
<svg xmlns="http://www.w3.org/2000/svg" xmlns:xlink="http://www.w3.org/1999/xlink" version="1.1">
<metadata></metadata>
<defs>
<font id="axiformaextrabold" horiz-adv-x="1732" >
<font-face units-per-em="2048" ascent="1579" descent="-469" />
<missing-glyph horiz-adv-x="505" />
<glyph horiz-adv-x="0" />
<glyph horiz-adv-x="682" />
<glyph horiz-adv-x="266" />
<glyph horiz-adv-x="266" />
<glyph unicode="&#xd;" horiz-adv-x="681" />
<glyph unicode=" "  horiz-adv-x="505" />
<glyph unicode="&#x09;" horiz-adv-x="505" />
<glyph unicode="&#xa0;" horiz-adv-x="505" />
<glyph unicode="!" horiz-adv-x="655" d="M154 156q0 74 53 125t131 51q72 0 124 -51.5t52 -124.5q0 -78 -51 -130.5t-125 -52.5q-78 0 -131 52.5t-53 130.5zM168 1552h334l-23 -1114h-293z" />
<glyph unicode="&#x22;" horiz-adv-x="1193" d="M66 862l184 645h368l-241 -645h-311zM621 862l184 645h369l-242 -645h-311z" />
<glyph unicode="#" horiz-adv-x="1556" d="M66 344l53 270h198l62 295h-205l53 271h209l70 333h309l-67 -333h231l68 333h307l-64 -333h203l-51 -271h-203l-57 -295h202l-49 -270h-205l-65 -344h-322l70 344h-233l-70 -344h-322l72 344h-194zM633 614h233l60 295h-232z" />
<glyph unicode="$" horiz-adv-x="1228" d="M57 281l219 219q56 -93 147 -150t187 -57q75 0 121.5 37t46.5 94q0 82 -123 141q-25 15 -65 31l-84 41q-128 68 -164 94q-209 141 -209 365q0 162 96.5 276.5t259.5 153.5v200h297v-198q181 -40 334 -187l-176 -245q-155 131 -303 131q-73 0 -114.5 -33t-41.5 -88 q-2 -43 50 -88l51 -35q3 -2 27.5 -15t29.5 -16l133 -67q105 -48 170 -90q205 -129 205 -349q0 -170 -101 -290t-270 -162v-223h-297v215q-273 53 -426 295z" />
<glyph unicode="%" horiz-adv-x="1865" d="M61 1159q0 156 115 268q114 111 277 111q164 0 278 -111q115 -112 115 -268q0 -152 -115 -264q-115 -109 -278 -109q-162 0 -277 109q-115 112 -115 264zM223 0l1100 1513h307l-1100 -1513h-307zM298 1161.5q0 -68.5 44 -112.5q47 -43 110.5 -43t110.5 43q47 44 47 112.5 t-47 112.5t-110.5 44t-110.5 -44q-44 -44 -44 -112.5zM1020 350q0 154 115 266q114 111 276 111q165 0 279 -111t114 -266t-114 -266q-115 -109 -279 -109q-161 0 -276 109q-115 112 -115 266zM1255 352q0 -68 46 -112.5t110 -44.5q67 0 113.5 44.5t46.5 112.5 q0 65 -48 111.5t-112 46.5t-110 -45.5t-46 -112.5z" />
<glyph unicode="&#x26;" horiz-adv-x="1443" d="M68 424q0 264 264 430q-88 140 -88 289q0 153 121 274q124 121 321 121q167 0 279 -100q116 -98 116 -242q0 -155 -114 -252q-62 -51 -110.5 -82.5t-131.5 -73.5l66 -59l245 -221l2 2q67 74 160 203l195 -162q-88 -128 -164 -215l207 -184l-181 -191l-204 189 q-203 -173 -461 -173q-234 0 -379 127q-143 128 -143 320zM387 451q0 -87 62 -143t161 -56q127 0 240 82l-272 250l-78 71q-113 -88 -113 -204zM518 1135q0 -77 47 -160l117 61q47 28 79 66t32 78q0 50 -35 84t-90 34q-66 0 -108 -47t-42 -116z" />
<glyph unicode="'" horiz-adv-x="636" d="M66 862l184 645h368l-241 -645h-311z" />
<glyph unicode="(" horiz-adv-x="874" d="M68 602q0 350 168.5 620.5t492.5 434.5l139 -258q-450 -284 -450 -795q0 -499 448 -803l-149 -254q-317 165 -483 435.5t-166 619.5z" />
<glyph unicode=")" horiz-adv-x="874" d="M8 -199q449 305 449 803q0 510 -449 795l137 258q326 -164 495 -434.5t169 -620.5q0 -347 -167 -618.5t-484 -436.5z" />
<glyph unicode="*" horiz-adv-x="1036" d="M68 1214l92 213l248 -118l-11 286h244l-10 -286l248 118l90 -210l-264 -117l182 -209l-174 -156l-193 236l-196 -236l-174 156l186 209z" />
<glyph unicode="+" horiz-adv-x="1206" d="M66 561v301h389v387h301v-387h385v-301h-385v-387l-301 -4v391h-389z" />
<glyph unicode="," horiz-adv-x="550" d="M37 -227q25 19 56 44t34 27q29 23 66.5 62t54.5 69h-6q-63 0 -110.5 49.5t-47.5 116.5q0 77 55 130t131 53q86 0 141.5 -60t55.5 -151q0 -245 -338 -463z" />
<glyph unicode="-" horiz-adv-x="1095" d="M119 418v299h858v-299h-858z" />
<glyph unicode="." horiz-adv-x="518" d="M80 147q0 75 52 127t130 52q73 0 124.5 -52.5t51.5 -126.5q0 -77 -51 -128.5t-125 -51.5q-78 0 -130 51t-52 129z" />
<glyph unicode="/" horiz-adv-x="1419" d="M35 -252l989 1942h360l-991 -1942h-358z" />
<glyph unicode="0" horiz-adv-x="1415" d="M88 758q0 344 160 563q165 219 459 219q300 0 460 -219q162 -216 162 -563t-162 -563q-161 -220 -460 -220q-294 0 -459 220q-160 219 -160 563zM424 758q0 -215 73 -340t212 -125t211.5 125t72.5 340q0 206 -73 334q-70 131 -211 131q-143 0 -213 -131 q-72 -132 -72 -334z" />
<glyph unicode="1" horiz-adv-x="878" d="M-10 1137l483 376h246v-1513h-330v1069l-229 -174z" />
<glyph unicode="2" horiz-adv-x="1202" d="M45 1298q248 242 547 242q216 0 358 -133q144 -132 144 -332q0 -122 -74.5 -251t-233.5 -294l-211 -221h531v-311h-1002v283l465 483q121 124 146 176q30 56 30 109q0 77 -52.5 124.5t-133.5 47.5q-151 0 -332 -166z" />
<glyph unicode="3" horiz-adv-x="1165" d="M20 125l140 270q184 -108 342 -108q104 0 164.5 45.5t60.5 120.5q0 72 -56.5 115.5t-148.5 43.5h-194v303h157q97 0 153 43t56 113q0 68 -52.5 110t-135.5 42q-126 0 -291 -113l-160 244q93 87 224 136.5t270 49.5q209 0 346 -113q141 -114 141 -280q0 -116 -71 -207.5 t-183 -130.5v-8q139 -30 218 -132t79 -241q0 -203 -155 -328q-152 -125 -400 -125q-261 0 -504 150z" />
<glyph unicode="4" horiz-adv-x="1275" d="M6 561l780 952h252v-892h162v-279h-162v-342h-313v342h-653zM377 621h348v432z" />
<glyph unicode="5" horiz-adv-x="1216" d="M53 137l129 271q195 -121 371 -121q118 0 185 56.5t67 145.5q0 85 -66 141t-166 56q-131 0 -241 -96l-189 166l78 757h819v-311h-569l-27 -262q95 31 189 31q217 0 362 -133q148 -133 148 -349q0 -221 -156 -368q-158 -146 -418 -146q-275 0 -516 162z" />
<glyph unicode="6" horiz-adv-x="1310" d="M88 711q0 331 160 571q81 121 213 189.5t295 68.5q238 0 428 -135l-148 -254q-124 86 -264 86q-162 0 -256 -117q-93 -112 -108 -289q110 146 327 146q220 0 357 -137q141 -138 141 -346q0 -223 -156 -367q-154 -145 -397 -145q-145 1 -260.5 58t-188 156.5t-109.5 231 t-34 283.5zM459 487q0 -94 63.5 -156.5t157.5 -62.5q93 0 156 63t63 156q0 91 -62 151t-155 60q-95 0 -159 -60t-64 -151z" />
<glyph unicode="7" horiz-adv-x="1089" d="M45 1200v313h997v-239l-524 -1274h-352l500 1200h-621z" />
<glyph unicode="8" horiz-adv-x="1308" d="M82 420q0 130 75 234.5t203 148.5v4q-100 49 -157.5 133.5t-57.5 194.5q0 174 140 290q142 115 370 115q227 0 369 -115q141 -114 141 -290q0 -110 -58.5 -195t-160.5 -133v-6q129 -44 206 -148t77 -233q0 -195 -160 -322q-156 -123 -414 -123q-259 0 -415 123 q-158 128 -158 322zM420 461q0 -85 65 -137t170 -52q104 0 169 52.5t65 134.5t-64.5 134t-169.5 52t-170 -52t-65 -132zM451 1096q0 -72 55 -121q56 -47 147 -47q93 0 146 47q55 46 55 121q0 74 -54.5 122t-144.5 48q-91 0 -147.5 -48t-56.5 -122z" />
<glyph unicode="9" horiz-adv-x="1296" d="M78 1026q0 224 151 369q154 145 398 145q280 0 430 -203q151 -204 151 -526q0 -134 -24.5 -255.5t-77 -228t-128.5 -184.5t-185.5 -123t-241.5 -45q-252 0 -426 136l123 249q131 -88 280 -88q151 0 241 101.5t114 283.5q-114 -114 -320 -114q-210 0 -348 135 q-137 137 -137 348zM403 1036q0 -92 62.5 -152.5t155.5 -60.5q94 0 155.5 60.5t61.5 152.5q0 93 -62 155t-155 62t-155.5 -60.5t-62.5 -156.5z" />
<glyph unicode=":" horiz-adv-x="581" d="M111 147q0 75 52 127t130 52q72 0 124 -53t52 -126q0 -77 -51 -128.5t-125 -51.5q-78 0 -130 51t-52 129zM111 877q0 75 52 126.5t130 51.5q72 0 124 -52.5t52 -125.5q0 -77 -51 -129t-125 -52q-78 0 -130 51.5t-52 129.5z" />
<glyph unicode=";" horiz-adv-x="620" d="M72 -227q25 19 56 44t34 27q29 23 66.5 62t54.5 69h-7q-63 0 -110 49.5t-47 116.5q0 77 55 130t131 53q86 0 141.5 -60t55.5 -151q0 -245 -338 -463zM131 879q0 78 54 131t134 53q76 0 129.5 -53.5t53.5 -130.5q0 -79 -53.5 -133t-129.5 -54q-80 0 -134 54t-54 133z" />
<glyph unicode="&#x3c;" horiz-adv-x="1130" d="M61 528v269l943 442v-317l-598 -256l598 -258v-324z" />
<glyph unicode="=" horiz-adv-x="1198" d="M127 334v262h946v-262h-946zM127 745v263h946v-263h-946z" />
<glyph unicode="&#x3e;" horiz-adv-x="1110" d="M119 74v323l573 258l-573 256v316l932 -451v-248z" />
<glyph unicode="?" horiz-adv-x="1155" d="M47 1339q209 265 526 265q224 0 363 -127q137 -125 137 -318q0 -89 -38.5 -169t-100.5 -140q-22 -20 -68.5 -59.5t-72 -64t-56.5 -59t-45 -69t-14 -70.5v-108h-311v129q0 87 35 161.5t92 127.5q18 16 53.5 46.5t55.5 48.5t47.5 46.5t42 50.5t25.5 51t11 58 q0 71 -50.5 116t-129.5 45q-147 0 -303 -182zM343 154.5q0 75.5 54 126.5t129.5 51t126.5 -51t51 -127t-53 -129q-51 -51 -125 -51t-129 51q-54 54 -54 129.5z" />
<glyph unicode="@" horiz-adv-x="1974" d="M80 592q0 386 270 653q271 271 662 271q387 0 641 -242q256 -244 256 -584q0 -239 -129 -395q-126 -156 -316 -156q-175 0 -243 148q-109 -148 -306 -148q-176 0 -297 127q-118 124 -118 318q0 192 118 319q120 129 300 129q166 0 264 -110v79h239v-516q0 -58 23.5 -89 t58.5 -31q67 0 119 88q55 88 55 223q0 267 -196 448q-194 179 -475 176q-290 -3 -494 -210q-201 -207 -201 -500q0 -299 211 -510t514 -211q142 0 285 49.5t252 134.5l106 -182q-106 -92 -278 -154q-180 -65 -373 -65q-264 0 -481 129q-217 126 -344 342q-123 215 -123 469z M752 588q0 -94 61 -157.5t152 -63.5q88 0 150.5 62.5t62.5 154.5q0 94 -62 159q-60 66 -149 66q-90 0 -154 -64q-61 -64 -61 -157z" />
<glyph unicode="A" horiz-adv-x="1441" d="M10 0l568 1513h294l555 -1513h-352l-100 305h-508l-105 -305h-352zM559 602h326l-162 479z" />
<glyph unicode="B" horiz-adv-x="1431" d="M160 0v1513h680q211 0 323 -112q115 -112 115 -262q0 -103 -57.5 -189t-151.5 -121q138 -35 213.5 -139t75.5 -248q0 -188 -133 -315t-351 -127h-714zM494 293h309q96 0 150.5 51t54.5 127q0 77 -53 127.5t-146 50.5h-315v-356zM494 926h272q83 0 129.5 43t46.5 108 q0 62 -44.5 104t-117.5 42h-286v-297z" />
<glyph unicode="C" horiz-adv-x="1558" d="M78 752q0 345 227 565q229 223 555 223q200 0 372.5 -83t276.5 -224l-221 -225q-173 206 -409 206q-189 0 -320 -131t-131 -329q0 -195 129 -324t320 -129q243 0 419 209l228 -213q-107 -145 -284.5 -232.5t-383.5 -87.5q-328 0 -555 216q-223 216 -223 559z" />
<glyph unicode="D" horiz-adv-x="1585" d="M160 0v1513h604q349 0 541 -204q196 -202 196 -553q0 -352 -198 -553q-200 -203 -549 -203h-594zM498 326h270q184 0 283 123q100 124 100 309q0 186 -100 307q-99 123 -283 123h-270v-862z" />
<glyph unicode="E" horiz-adv-x="1325" d="M160 0v1513h1057v-315h-717v-280h663v-314h-663v-289h714v-315h-1054z" />
<glyph unicode="F" horiz-adv-x="1257" d="M160 0v1513h1038v-319h-700v-299h616v-317h-616v-578h-338z" />
<glyph unicode="G" horiz-adv-x="1656" d="M78 756q0 342 231 563q232 221 574 221q178 0 337.5 -64t266.5 -171l-217 -246q-165 155 -389 155q-200 0 -328 -131q-129 -129 -129 -323q0 -193 127 -326t328 -133q108 0 209.5 40t166.5 103v174h-385v291h693v-637q-295 -295 -691 -295q-343 0 -571 220 q-223 219 -223 559z" />
<glyph unicode="H" horiz-adv-x="1587" d="M160 0v1513h338v-591h589v591h340v-1513h-340v596h-589v-596h-338z" />
<glyph unicode="I" horiz-adv-x="659" d="M160 0v1513h340v-1513h-340z" />
<glyph unicode="J" horiz-adv-x="1216" d="M2 160l156 268q133 -127 295 -127q130 0 206 82t76 223v907h338v-919q0 -313 -168 -465q-168 -154 -424 -154q-288 0 -479 185z" />
<glyph unicode="K" horiz-adv-x="1445" d="M160 0v1513h338v-675l530 675h410l-541 -679l576 -834h-416l-381 575l-178 -215v-360h-338z" />
<glyph unicode="L" horiz-adv-x="1282" d="M160 0v1513h340v-1189h753v-324h-1093z" />
<glyph unicode="M" horiz-adv-x="1937" d="M160 0v1513h237l572 -823l567 823h242v-1513h-338v801l-412 -588h-123l-411 588v-801h-334z" />
<glyph unicode="N" horiz-adv-x="1636" d="M160 0v1513h229l756 -884v884h332v-1513h-244l-739 877v-877h-334z" />
<glyph unicode="O" d="M76 754q0 330 227 557q229 229 563 229q335 0 561 -229q230 -227 230 -555t-227 -555q-229 -226 -566 -226t-563 226q-225 225 -225 553zM428 756q0 -190 127 -320q127 -127 311 -127q187 0 314 127q125 128 125 311v9q-3 195 -129 321q-126 129 -310 129 q-185 0 -311 -129q-127 -130 -127 -321z" />
<glyph unicode="P" horiz-adv-x="1331" d="M160 0v1513h579q277 0 412 -147q137 -146 137 -365q0 -217 -141 -358t-432 -141h-217v-502h-338zM498 807h229q101 0 158 57t57 142q0 84 -55.5 140t-145.5 56h-243v-395z" />
<glyph unicode="Q" d="M76 758q0 328 227 555q230 227 563 227q334 0 561 -227q230 -227 230 -557q0 -244 -131 -439q-129 -193 -344 -282q90 -84 243 -84q103 0 224 39l47 -277q-140 -51 -293 -51q-376 0 -602 318q-313 27 -518 247q-207 222 -207 531zM420 756q0 -195 129 -324t317 -129 q189 0 318 129t129 324q0 193 -129 325q-128 131 -318 131q-186 0 -317 -131q-129 -132 -129 -325z" />
<glyph unicode="R" horiz-adv-x="1404" d="M160 0v1513h602q259 0 397 -141q137 -137 137 -348q0 -151 -74 -270t-218 -179l350 -575h-393l-297 528h-166v-528h-338zM498 827h239q102 0 156.5 53.5t54.5 137.5q0 81 -50 132.5t-138 51.5h-262v-375z" />
<glyph unicode="S" horiz-adv-x="1271" d="M33 248l184 241q170 -200 412 -200q87 0 142.5 37.5t55.5 99.5q0 83 -131 141l-135 49q-131 50 -194 84q-244 133 -244 383q0 198 149 326q150 129 390 129q301 0 514 -201l-168 -252q-65 62 -160 99t-182 37q-85 0 -133 -34.5t-48 -90.5q0 -78 123 -133l148 -60 q130 -52 174 -72q272 -123 272 -385q0 -207 -160 -340q-157 -133 -415 -133q-181 0 -335.5 71t-258.5 204z" />
<glyph unicode="T" horiz-adv-x="1251" d="M29 1188v325h1194v-325h-426v-1188h-340v1188h-428z" />
<glyph unicode="U" horiz-adv-x="1497" d="M143 569v944h340v-929q0 -138 71.5 -210.5t195.5 -72.5q121 0 192.5 73t71.5 210v929h340v-944q0 -296 -172 -446t-432 -150q-258 0 -433 150q-174 149 -174 446z" />
<glyph unicode="V" horiz-adv-x="1531" d="M4 1513h391l373 -1005l369 1005h387l-613 -1513h-286z" />
<glyph unicode="W" horiz-adv-x="2207" d="M8 1513h373l283 -985l325 985h228l329 -985l279 985h373l-494 -1513h-305l-295 942l-295 -942h-305z" />
<glyph unicode="X" horiz-adv-x="1400" d="M6 0l477 764l-442 749h391l270 -493l287 493h395l-469 -749l465 -764h-391l-291 508l-297 -508h-395z" />
<glyph unicode="Y" horiz-adv-x="1419" d="M18 1513h396l295 -626l301 626h395l-526 -995v-518h-338v518z" />
<glyph unicode="Z" horiz-adv-x="1355" d="M74 0v248l723 954h-695v311h1153v-260l-706 -942h729v-311h-1204z" />
<glyph unicode="[" horiz-adv-x="860" d="M147 -465v2126h670v-289h-342v-1548h342v-289h-670z" />
<glyph unicode="\" horiz-adv-x="1394" d="M37 1690h358l965 -1942h-354z" />
<glyph unicode="]" horiz-adv-x="860" d="M43 -176h342v1548h-342v289h670v-2126h-670v289z" />
<glyph unicode="^" horiz-adv-x="1126" d="M66 883l387 696h221l387 -696h-316l-182 366l-182 -366h-315z" />
<glyph unicode="_" horiz-adv-x="1216" d="M0 -111h1217v-297h-1217v297z" />
<glyph unicode="`" horiz-adv-x="776" d="M82 1636h350l129 -366h-287z" />
<glyph unicode="a" horiz-adv-x="1394" d="M68 567q0 250 157 418q156 166 396 166q202 0 346 -147v118h303v-1122h-303v115q-144 -144 -346 -144q-242 0 -398 170q-155 171 -155 426zM389 563q0 -124 80 -213q83 -86 207 -86q125 0 207 88q84 90 84 211q0 122 -84 209q-83 86 -207 86t-207 -86q-80 -86 -80 -209z " />
<glyph unicode="b" horiz-adv-x="1396" d="M123 0v1559h321v-547q133 139 326 139q238 0 397 -170q162 -168 162 -420q0 -251 -160 -422q-158 -168 -399 -168q-203 0 -336 154v-125h-311zM430 563q0 -125 80 -211q83 -86 207 -86q125 0 205 86q79 85 79 211q0 125 -79 207q-80 86 -205 86q-124 0 -207 -86 q-80 -83 -80 -207z" />
<glyph unicode="c" horiz-adv-x="1239" d="M68 563q0 260 168 422q169 166 434 166q176 0 318 -84.5t210 -235.5l-256 -137q-100 160 -266 160q-123 0 -207 -84q-82 -82 -82 -207q0 -128 80 -211q82 -82 205 -82q84 0 156 44t108 114l260 -154q-74 -138 -215.5 -218.5t-316.5 -80.5q-264 0 -431 164 q-165 165 -165 424z" />
<glyph unicode="d" horiz-adv-x="1390" d="M68 561q0 249 157 420q159 170 396 170q192 0 323 -137v545h322v-1559h-312v121q-132 -150 -333 -150q-238 0 -396 168q-157 171 -157 422zM387 563q0 -127 80 -213q83 -86 207 -86q125 0 205 86q82 85 82 213q0 124 -82 209q-80 86 -205 86q-124 0 -207 -86 q-80 -86 -80 -209z" />
<glyph unicode="e" horiz-adv-x="1294" d="M70 563q0 254 163 420q162 168 429 168q246 0 407 -152q160 -151 160 -411q0 -50 -10 -135h-826q58 -211 305 -211q192 0 351 108l127 -219q-206 -156 -492 -156q-298 0 -457 170q-157 171 -157 418zM391 682h529q-23 98 -91 153.5t-167 55.5t-172 -55.5t-99 -153.5z" />
<glyph unicode="f" horiz-adv-x="913" d="M59 856v266h166v37q0 223 129 340q132 117 338 117q170 0 342 -90l-104 -244q-111 51 -189 51q-94 0 -145 -47t-51 -135v-29h346v-266h-346v-856h-320v856h-166z" />
<glyph unicode="g" horiz-adv-x="1388" d="M68 571q0 255 163 418q162 162 408 162q201 0 334 -139v110h293v-1011q0 -272 -179 -428q-177 -160 -450 -160q-295 0 -524 168l123 237q192 -131 389 -131q156 0 244.5 80.5t88.5 208.5v43q-125 -131 -331 -131q-249 0 -404 162t-155 411zM391 569q0 -127 82 -209 q84 -84 205 -84q124 0 203 82q82 82 82 211q0 124 -81 205.5t-204 81.5t-205 -82q-82 -79 -82 -205z" />
<glyph unicode="h" horiz-adv-x="1335" d="M123 0v1559h313v-586q46 78 141 129t214 51q180 0 307 -121t127 -346v-686h-322v602q0 122 -58 189t-159 67q-109 0 -175.5 -72.5t-66.5 -191.5v-594h-321z" />
<glyph unicode="i" horiz-adv-x="569" d="M100 1427q0 82 55.5 136.5t137.5 54.5q80 0 135 -55t55 -136t-55 -135.5t-135 -54.5q-82 0 -137.5 54.5t-55.5 135.5zM129 0v1122h322v-1122h-322z" />
<glyph unicode="j" horiz-adv-x="618" d="M-233 -416l61 252q82 -33 160 -33q184 0 184 217v1102h322v-1126q0 -232 -122 -353.5t-329 -121.5q-184 0 -276 63zM141 1427q0 82 55.5 136.5t137.5 54.5q80 0 135 -55t55 -136t-55 -135.5t-135 -54.5q-82 0 -137.5 54.5t-55.5 135.5z" />
<glyph unicode="k" horiz-adv-x="1222" d="M123 0v1559h321v-795l377 358h398l-492 -456l524 -666h-389l-354 465l-64 -59v-406h-321z" />
<glyph unicode="l" horiz-adv-x="567" d="M123 0v1559h321v-1559h-321z" />
<glyph unicode="m" horiz-adv-x="2072" d="M123 0v1122h313v-159q48 90 142 141q91 49 196 49h8q107 0 193 -48t129 -142q62 91 167.5 140.5t229.5 49.5q198 0 330 -123q131 -122 131 -348v-682h-322v621q0 114 -55.5 175.5t-150.5 61.5q-102 0 -166 -67t-64 -181v-610h-321v618q0 111 -58 175.5t-153 64.5 q-100 0 -164 -67.5t-64 -182.5v-608h-321z" />
<glyph unicode="n" horiz-adv-x="1335" d="M123 0v1122h313v-155q46 82 141.5 134t213.5 52q182 0 309 -121t127 -346v-686h-322v602q0 121 -59 188.5t-160 67.5q-109 0 -175.5 -72.5t-66.5 -191.5v-594h-321z" />
<glyph unicode="o" horiz-adv-x="1345" d="M68 561q0 252 168 420q169 172 436 172q269 0 438 -172q170 -170 170 -420q0 -249 -170 -422q-170 -170 -438 -170q-266 0 -436 170q-168 171 -168 422zM387 563q0 -126 82 -211q84 -84 203 -84q118 0 202 84q84 87 84 211q0 121 -84 205q-83 86 -202 86q-120 0 -203 -86 q-82 -82 -82 -205z" />
<glyph unicode="p" horiz-adv-x="1400" d="M123 -463v1585h317v-125q139 154 342 154q240 0 396 -172q155 -168 155 -416q0 -246 -157 -420q-156 -172 -394 -172q-200 0 -338 144v-578h-321zM440 561q0 -126 80 -210.5t203 -84.5q124 0 204.5 84.5t80.5 210.5q0 124 -80 207q-80 86 -205 86q-123 0 -203 -86 q-80 -83 -80 -207z" />
<glyph unicode="q" horiz-adv-x="1400" d="M68 563q0 248 155 416q156 172 395 172q200 0 343 -152v123h317v-1585h-322v578q-138 -144 -338 -144q-239 0 -395 172q-155 171 -155 420zM393 561q0 -126 80.5 -210.5t204.5 -84.5t204.5 84.5t80.5 210.5q0 124 -80 207q-80 86 -205 86t-205 -86q-80 -83 -80 -207z" />
<glyph unicode="r" horiz-adv-x="884" d="M123 0v1122h307v-145q108 176 305 176q63 0 139 -27l-26 -307q-73 25 -141 25q-123 0 -193 -83t-70 -249v-512h-321z" />
<glyph unicode="s" horiz-adv-x="1046" d="M41 176l158 209q144 -147 321 -147q61 0 99 24.5t38 65.5q0 48 -69 82q-18 9 -133 49q-125 47 -146 57q-200 95 -200 297q0 157 118 250q122 96 320 96q243 0 405 -155l-149 -209q-125 104 -262 104q-53 0 -85 -22t-32 -58q0 -60 100 -94q195 -63 267 -102 q190 -102 190 -287q0 -156 -127 -262q-126 -105 -334 -105q-296 0 -479 207z" />
<glyph unicode="t" horiz-adv-x="968" d="M39 856v266h180v398h320v-398h360v-266h-360v-401q0 -191 149 -191q77 0 184 55l91 -256q-145 -92 -345 -92q-401 0 -401 453v432h-178z" />
<glyph unicode="u" horiz-adv-x="1269" d="M109 481v641h321v-643q0 -98 54.5 -155.5t150.5 -57.5t150.5 57.5t54.5 155.5v643h321v-641q0 -243 -139 -376.5t-387 -133.5q-246 0 -386 135t-140 375z" />
<glyph unicode="v" horiz-adv-x="1245" d="M12 1122h355l260 -688l256 688h350l-485 -1120h-252z" />
<glyph unicode="w" horiz-adv-x="1822" d="M12 1122h338l211 -698l236 698h227l240 -698l206 698h338l-378 -1120h-285l-234 655l-231 -655h-285z" />
<glyph unicode="x" horiz-adv-x="1163" d="M6 0l363 569l-322 553h367l172 -327l188 327h361l-342 -559l352 -563h-371l-194 350l-207 -350h-367z" />
<glyph unicode="y" horiz-adv-x="1257" d="M12 1122h371l270 -694l242 694h348l-444 -1153q-88 -227 -208.5 -336.5t-297.5 -109.5q-138 0 -227 59l59 266q69 -38 145 -38q135 0 217 172l15 32z" />
<glyph unicode="z" horiz-adv-x="1124" d="M68 0v223l534 631h-510v266h940v-223l-522 -631h545v-266h-987z" />
<glyph unicode="{" horiz-adv-x="860" d="M39 463v262q126 13 180.5 53.5t54.5 141.5q0 36 -10 176q-8 112 -8 188q0 377 397 377h140v-313h-54q-153 0 -153 -150q0 -51 12 -180t12 -176q0 -89 -57 -154t-141 -92v-8q84 -25 141 -90t57 -154q0 -50 -12 -176t-12 -176q0 -152 153 -152h54v-313h-158 q-379 0 -379 393q0 67 8 174q10 133 10 174q0 101 -55 142.5t-180 52.5z" />
<glyph unicode="|" horiz-adv-x="620" d="M147 -367v2102h326v-2102h-326z" />
<glyph unicode="}" horiz-adv-x="860" d="M68 -160h53q153 0 153 152q0 50 -12 176t-12 176q0 89 57.5 154t141.5 90v8q-84 27 -141.5 92t-57.5 154q0 47 12 176t12 180q0 150 -153 150h-53v313h139q397 0 397 -377q0 -48 -10 -188q-8 -112 -8 -176q0 -101 54.5 -141.5t180.5 -53.5v-262q-125 -11 -180 -52.5 t-55 -142.5q0 -67 8 -174q10 -133 10 -174q0 -393 -379 -393h-157v313z" />
<glyph unicode="~" horiz-adv-x="1454" d="M88 621q62 123 170.5 188t241.5 65q117 0 262 -65q143 -64 203 -64q50 0 91.5 31t102.5 115l213 -170q-152 -260 -424 -260q-123 0 -264 63q-144 66 -195 66q-50 0 -92 -28t-104 -105z" />
<glyph unicode="&#xa1;" horiz-adv-x="581" d="M143 897q0 78 53.5 130t131.5 52q74 0 125 -52t51 -130q0 -73 -52 -124.5t-124 -51.5q-78 0 -131.5 51t-53.5 125zM158 -500l18 1114h293l23 -1114h-334z" />
<glyph unicode="&#xa2;" horiz-adv-x="1275" d="M78 563q0 233 139 393q144 162 371 189v153h170v-151q151 -17 269.5 -99t180.5 -217l-256 -137q-78 123 -194 152v-565q133 35 188 147l260 -154q-63 -121 -180.5 -198t-267.5 -96v-156h-170v156q-228 27 -371 188q-139 160 -139 395zM397 563q0 -98 52 -173.5 t139 -104.5v553q-87 -29 -139 -104t-52 -171z" />
<glyph unicode="&#xa3;" horiz-adv-x="1216" d="M96 629v250h117q-37 118 -37 206q0 191 148 324q146 131 352 131q149 0 274.5 -66t192.5 -174l-213 -204q-38 57 -97 91t-122 34q-86 0 -141.5 -55.5t-55.5 -137.5q0 -44 31 -149h456v-250h-401v-19q-3 -166 -123 -301h649v-309h-1017v262q163 169 163 356v11h-176z" />
<glyph unicode="&#xa4;" horiz-adv-x="1325" d="M96 350l152 150q-76 113 -76 252q0 149 86 270l-162 162l144 147l174 -172q115 62 243 62q140 0 250 -64l178 174l146 -147l-170 -166q84 -122 84 -266q0 -130 -72 -246l158 -156l-146 -145l-161 157q-119 -73 -267 -73t-260 69l-157 -153zM428 756q0 -96 66 -168 q65 -68 163 -68q99 0 164 68q68 71 68 168q0 98 -68 166q-64 67 -164 67q-99 0 -163 -67q-66 -69 -66 -166z" />
<glyph unicode="&#xa5;" horiz-adv-x="1454" d="M57 1513h379l291 -632l295 632h379l-342 -659h174v-244h-301l-37 -71v-15h338v-243h-338v-281h-338v281h-340v243h340v17l-37 69h-303v244h178z" />
<glyph unicode="&#xa6;" horiz-adv-x="620" d="M147 -367v846h326v-846h-326zM147 889v846h326v-846h-326z" />
<glyph unicode="&#xa7;" horiz-adv-x="1302" d="M72 -217l213 223q63 -81 152.5 -130.5t178.5 -49.5q74 0 120 35t46 90q0 81 -151 158q-105 51 -137 65q-88 39 -144.5 72.5t-118.5 83.5q-129 111 -129 266q0 176 144 287q-64 94 -64 209q0 199 148 323q146 125 375 125q288 0 473 -215l-230 -215q-105 117 -233 117 q-79 0 -128.5 -37.5t-49.5 -93.5q0 -31 17 -56t52 -55q10 -7 30.5 -18.5t44.5 -23.5t32 -17l65 -31l66 -29q87 -38 142.5 -70.5t115.5 -82.5q127 -103 127 -273q0 -178 -144 -286q62 -89 62 -205q0 -181 -146 -309q-143 -125 -378 -125q-165 0 -309 68.5t-242 199.5z M436 623q0 -44 44 -80t151 -90q170 -80 221 -107q31 36 31 70q0 45 -45 81t-152 87q-155 73 -219 110q-31 -39 -31 -71z" />
<glyph unicode="&#xa8;" horiz-adv-x="1052" d="M88 1452q0 75 53 127.5t131 52.5t130.5 -52.5t52.5 -127.5q0 -79 -52.5 -130.5t-130.5 -51.5q-80 0 -132 51.5t-52 130.5zM547 1452q0 75 53 127.5t131 52.5q77 0 129.5 -52t52.5 -128q0 -79 -52 -130.5t-130 -51.5q-80 0 -132 51.5t-52 130.5z" />
<glyph unicode="&#xa9;" d="M78 756q0 322 231 553t557 231t557 -231q232 -232 232 -553q0 -319 -232 -551q-230 -230 -557 -230t-557 230q-231 231 -231 551zM264 756q0 -246 176 -422q173 -173 426 -176q251 3 424 176q178 175 178 422q0 249 -178 424q-176 176 -424 176q-247 0 -426 -176 q-176 -176 -176 -424zM449 756q0 185 118 303q121 121 305 121q116 0 210 -54.5t149 -154.5l-164 -99q-80 105 -190 105q-94 0 -156 -62.5t-62 -158.5q0 -97 60.5 -159t154.5 -62q124 0 193 100l162 -111q-117 -190 -357 -190q-186 0 -305 119q-118 118 -118 303z" />
<glyph unicode="&#xaa;" horiz-adv-x="833" d="M78 1008q0 106 81 160.5t224 54.5q10 0 29.5 -0.5t55 -1.5t64.5 -2q-15 114 -155 114q-109 0 -207 -49l-59 148q124 75 290 75q144 0 233 -83t89 -244v-381h-182v69q-78 -84 -217 -84q-114 0 -180 62.5t-66 161.5zM266 1018q0 -74 96 -74q73 0 121 41.5t49 108.5 q-121 3 -135 2q-131 -3 -131 -78z" />
<glyph unicode="&#xab;" horiz-adv-x="1251" d="M61 596l275 416h338l-285 -416l285 -416h-338zM551 596l272 416h340l-284 -416l284 -416h-342z" />
<glyph unicode="&#xac;" horiz-adv-x="1232" d="M123 498v295h975v-514h-289v219h-686z" />
<glyph unicode="&#xad;" horiz-adv-x="1015" d="M117 522v299h782v-299h-782z" />
<glyph unicode="&#xae;" horiz-adv-x="1232" d="M82 1071q0 221 156 377t380 156q221 0 377 -156q158 -158 158 -377t-158 -377q-155 -155 -377 -155q-225 0 -380 155q-156 156 -156 377zM227 1071q0 -164 113 -280q114 -117 278 -117q163 0 277 117q115 118 115 280q0 163 -115 281q-113 116 -277 116q-165 0 -278 -116 t-113 -281zM420 829v494h235q74 0 123 -47t49 -119q0 -106 -92 -147l103 -181h-142l-88 162h-57v-162h-131zM551 1096h72q71 0 71 63q0 58 -71 58h-72v-121z" />
<glyph unicode="&#xaf;" horiz-adv-x="917" d="M82 1296v281h684v-277z" />
<glyph unicode="&#xb0;" horiz-adv-x="751" d="M57 1391q0 131 93 221q95 92 227 92q133 0 225 -92q92 -89 92 -221q0 -131 -92 -220q-93 -90 -225 -90q-131 0 -227 90q-93 90 -93 220zM250 1390.5q0 -53.5 37 -90.5t90 -37t90 37t37 90.5t-37 90.5t-90 37t-90 -37t-37 -90.5z" />
<glyph unicode="&#xb1;" horiz-adv-x="1286" d="M109 82v289h389v348h-389v297h389v387h295v-387h385v-297h-385v-348h385v-289h-1069z" />
<glyph unicode="&#xb2;" horiz-adv-x="710" d="M43 1722q134 146 309 146q123 0 203 -72t80 -184q0 -115 -115 -236l-153 -155h272v-183h-565v166l264 266q86 89 86 140q0 32 -24 52.5t-62 20.5q-79 0 -197 -112z" />
<glyph unicode="&#xb3;" horiz-adv-x="684" d="M16 1108l82 160q118 -56 193 -56q117 0 117 78q0 32 -32 53t-83 21h-111v174h97q45 0 77.5 19t32.5 55q0 65 -96 65q-69 0 -158 -53l-98 145q120 99 282 99q119 0 199 -62q82 -61 82 -151q0 -65 -40 -113t-107 -69v-5q81 -19 125.5 -71t44.5 -125q0 -109 -90 -177.5 t-232 -68.5q-148 0 -285 82z" />
<glyph unicode="&#xb4;" horiz-adv-x="798" d="M82 1270l127 366h352l-192 -366h-287z" />
<glyph unicode="&#xb6;" horiz-adv-x="1632" d="M55 1026q0 214 135 346q137 131 361 131h987v-319h-162v-1600h-327v1600h-146v-1600h-328v971h-59q-200 0 -332 129q-129 129 -129 342z" />
<glyph unicode="&#xb7;" horiz-adv-x="548" d="M96 147q0 75 52.5 127t130.5 52q73 0 124.5 -52.5t51.5 -126.5q0 -77 -51 -128.5t-125 -51.5q-78 0 -130.5 51t-52.5 129z" />
<glyph unicode="&#xb8;" horiz-adv-x="727" d="M82 -498l65 181q87 -43 166 -43q49 0 77 20.5t28 52.5q0 68 -117 68h-108l-17 59l80 201l233 -4l-55 -135q94 -6 156.5 -64t62.5 -147q0 -107 -84 -179.5t-227 -72.5q-125 0 -260 63z" />
<glyph unicode="&#xb9;" horiz-adv-x="575" d="M16 1622l301 225h156v-809h-209v521l-141 -103z" />
<glyph unicode="&#xba;" horiz-adv-x="868" d="M66 1139q0 157 104 258q107 104 264 104q158 0 262 -104q107 -101 107 -258q0 -155 -107 -256q-106 -103 -262 -103q-155 0 -264 103q-104 101 -104 256zM262 1141q0 -73 49 -121.5t123 -48.5q75 0 123.5 48t48.5 122q0 73 -50 122.5t-124 49.5q-72 0 -121 -50t-49 -122z " />
<glyph unicode="&#xbb;" horiz-adv-x="1251" d="M88 180l285 416l-285 416h340l272 -416l-270 -416h-342zM578 180l284 416l-284 416h337l275 -416l-275 -416h-337z" />
<glyph unicode="&#xbc;" horiz-adv-x="1828" d="M59 1294l303 226h154v-809h-207v522l-143 -105zM215 0l1184 1513h254l-1182 -1513h-256zM1061 301l428 510h164v-469h86v-166h-86v-176h-191v176h-358zM1280 342h182v213z" />
<glyph unicode="&#xbd;" horiz-adv-x="1789" d="M61 1294l304 226h153v-809h-207v522l-143 -105zM172 0l1184 1513h254l-1182 -1513h-256zM1110 684q133 145 309 145q123 0 203 -72t80 -184q0 -114 -115 -235l-153 -156h272v-182h-565v166l264 266q86 89 86 139q0 32 -24 53t-62 21q-78 0 -197 -113z" />
<glyph unicode="&#xbe;" horiz-adv-x="1744" d="M41 780l82 160q116 -55 192 -55q117 0 117 78q0 32 -32 52.5t-83 20.5h-110v174h96q45 0 78 19t33 55q0 66 -97 66q-66 0 -157 -54l-99 146q119 98 283 98q120 0 199 -61q82 -61 82 -152q0 -65 -40.5 -113t-107.5 -69v-4q81 -19 125.5 -71.5t44.5 -125.5 q0 -109 -89.5 -177.5t-231.5 -68.5q-148 0 -285 82zM213 0l1184 1513h254l-1182 -1513h-256zM956 301l428 510h164v-469h86v-166h-86v-176h-190v176h-359zM1176 342h182v213z" />
<glyph unicode="&#xbf;" horiz-adv-x="1140" d="M72 -104q0 89 39 169t100 138q22 21 69 60.5t72.5 64t56 59t44.5 69t14 70.5v109h311v-129q0 -87 -35 -161.5t-92 -127.5q-19 -18 -62.5 -55.5t-66.5 -59.5t-51.5 -55t-41.5 -65t-13 -66q0 -72 51 -117t129 -45q146 0 303 183l199 -222q-208 -264 -527 -264 q-223 0 -362 127q-137 125 -137 318zM441 901q0 76 51 127q54 54 126.5 54t126.5 -54q55 -51 56 -127t-53 -127t-129.5 -51t-126.5 51t-51 127z" />
<glyph unicode="&#xc0;" horiz-adv-x="1441" d="M10 0l568 1513h294l555 -1513h-352l-100 305h-508l-105 -305h-352zM369 2015h372l136 -387h-306zM559 602h326l-162 479z" />
<glyph unicode="&#xc1;" horiz-adv-x="1441" d="M10 0l568 1513h294l555 -1513h-352l-100 305h-508l-105 -305h-352zM559 602h326l-162 479zM586 1626l133 385h368l-200 -385h-301z" />
<glyph unicode="&#xc2;" horiz-adv-x="1441" d="M10 0l568 1513h294l555 -1513h-352l-100 305h-508l-105 -305h-352zM274 1626l326 389h254l326 -389h-324l-133 184l-135 -184h-314zM559 602h326l-162 479z" />
<glyph unicode="&#xc3;" horiz-adv-x="1441" d="M10 0l568 1513h294l555 -1513h-352l-100 305h-508l-105 -305h-352zM240 1714q63 132 139 194t184 62q71 0 160 -47q86 -45 121 -45q36 0 62.5 22.5t62.5 81.5l209 -100q-102 -256 -301 -256q-69 0 -158 45q-92 47 -131 47q-78 0 -139 -108zM559 602h326l-162 479z" />
<glyph unicode="&#xc4;" horiz-adv-x="1441" d="M10 0l568 1513h294l555 -1513h-352l-100 305h-508l-105 -305h-352zM293 1810q0 75 54 129t132 54t131.5 -52.5t53.5 -130.5q0 -79 -52.5 -131.5t-132.5 -52.5t-133 52.5t-53 131.5zM559 602h326l-162 479zM758 1810q0 75 54 129t132 54q77 0 130.5 -53.5t53.5 -129.5 q0 -79 -53 -131.5t-131 -52.5q-80 0 -133 52.5t-53 131.5z" />
<glyph unicode="&#xc5;" horiz-adv-x="1441" d="M10 0l568 1513h294l555 -1513h-352l-100 305h-508l-105 -305h-352zM430 1878q0 122 86 205q87 84 211 84q122 0 211 -86q88 -82 88 -203t-88 -203t-211 -82q-126 0 -211 82q-86 83 -86 203zM559 602h326l-162 479zM614 1882q0 -47 32.5 -78.5t80.5 -31.5q45 0 77 31.5 t32 78.5q0 44 -32.5 76.5t-76.5 32.5q-47 0 -80 -32t-33 -77z" />
<glyph unicode="&#xc6;" horiz-adv-x="2174" d="M-39 0l903 1513h1202v-315h-723v-280h668v-314h-668v-289h721v-315h-1063v324h-489l-182 -324h-369zM680 623h321v569z" />
<glyph unicode="&#xc7;" horiz-adv-x="1556" d="M76 752q0 345 227 565q229 223 555 223q200 0 372.5 -83t276.5 -224l-221 -225q-173 206 -409 206q-189 0 -320 -131t-131 -329q0 -195 129 -324t319 -129q244 0 420 209l228 -213q-92 -124 -238.5 -207t-320.5 -106l-33 -82q94 -6 156.5 -64t62.5 -147 q0 -107 -84 -179.5t-227 -72.5q-125 0 -260 63l65 181q87 -43 166 -43q49 0 76.5 20.5t27.5 52.5q0 68 -116 68h-109l-16 59l57 146q-283 40 -469 250q-184 208 -184 516z" />
<glyph unicode="&#xc8;" horiz-adv-x="1325" d="M160 0v1513h1057v-315h-717v-280h663v-314h-663v-289h714v-315h-1054zM352 2015h373l135 -387h-305z" />
<glyph unicode="&#xc9;" horiz-adv-x="1325" d="M160 0v1513h1057v-315h-717v-280h663v-314h-663v-289h714v-315h-1054zM524 1626l133 385h369l-201 -385h-301z" />
<glyph unicode="&#xca;" horiz-adv-x="1325" d="M160 0v1513h1057v-315h-717v-280h663v-314h-663v-289h714v-315h-1054zM238 1626l325 389h254l326 -389h-324l-133 184l-135 -184h-313z" />
<glyph unicode="&#xcb;" horiz-adv-x="1325" d="M160 0v1513h1057v-315h-717v-280h663v-314h-663v-289h714v-315h-1054zM270 1810q0 75 54.5 129t132.5 54t131 -52.5t53 -130.5q0 -80 -52.5 -132t-131.5 -52q-80 0 -133.5 52.5t-53.5 131.5zM735 1810q0 75 54.5 129t132.5 54q77 0 130.5 -53.5t53.5 -129.5 q0 -79 -53 -131.5t-131 -52.5q-80 0 -133.5 52.5t-53.5 131.5z" />
<glyph unicode="&#xcc;" horiz-adv-x="659" d="M-14 2015h372l136 -387h-306zM162 0v1513h340v-1513h-340z" />
<glyph unicode="&#xcd;" horiz-adv-x="657" d="M160 0v1513h340v-1513h-340zM172 1628l133 385h369l-201 -385h-301z" />
<glyph unicode="&#xce;" horiz-adv-x="659" d="M-119 1630l326 389h254l325 -389h-323l-133 185l-135 -185h-314zM162 0v1513h340v-1513h-340z" />
<glyph unicode="&#xcf;" horiz-adv-x="659" d="M-92 1815q0 78 55 132t135 54q78 0 132.5 -54t54.5 -132q0 -81 -53.5 -135t-133.5 -54q-82 0 -136 53.5t-54 135.5zM162 0v1513h340v-1513h-340zM381 1815q0 78 55 132t133 54q79 0 134 -54t55 -132q0 -81 -54.5 -135t-134.5 -54t-134 54t-54 135z" />
<glyph unicode="&#xd0;" horiz-adv-x="1615" d="M35 623v270h153v620h605q348 0 540 -204q197 -203 197 -553q0 -351 -199 -553q-200 -203 -549 -203h-594v623h-153zM526 326h271q183 0 282 123q101 125 101 309q0 185 -101 307q-99 123 -282 123h-271v-295h377v-270h-377v-297z" />
<glyph unicode="&#xd1;" horiz-adv-x="1636" d="M160 0v1513h229l756 -884v884h332v-1513h-244l-739 877v-877h-334zM350 1724q63 132 139.5 194t184.5 62q71 0 160 -47q86 -45 120 -45q36 0 62 23t63 82l209 -101q-102 -256 -301 -256q-69 0 -158 45q-94 48 -131 48q-77 0 -139 -109z" />
<glyph unicode="&#xd2;" d="M76 754q0 330 227 557q229 229 563 229q335 0 561 -229q230 -227 230 -555t-227 -555q-229 -226 -566 -226t-563 226q-225 225 -225 553zM428 756q0 -190 127 -320q127 -127 311 -127q187 0 314 127q128 131 125 320q-3 195 -129 321q-126 129 -310 129q-185 0 -311 -129 q-127 -130 -127 -321zM532 2015h373l135 -387h-305z" />
<glyph unicode="&#xd3;" d="M76 754q0 330 227 557q229 229 563 229q335 0 561 -229q230 -227 230 -555t-227 -555q-229 -226 -566 -226t-563 226q-225 225 -225 553zM428 756q0 -190 127 -320q127 -127 311 -127q187 0 314 127q128 131 125 320q-3 195 -129 321q-126 129 -310 129q-185 0 -311 -129 q-127 -130 -127 -321zM717 1626l133 385h369l-201 -385h-301z" />
<glyph unicode="&#xd4;" d="M76 754q0 330 227 557q229 229 563 229q335 0 561 -229q230 -227 230 -555t-227 -555q-229 -226 -566 -226t-563 226q-225 225 -225 553zM416 1626l325 389h254l326 -389h-324l-133 184l-135 -184h-313zM428 756q0 -190 127 -320q127 -127 311 -127q187 0 314 127 q128 131 125 320q-3 195 -129 321q-126 129 -310 129q-185 0 -311 -129q-127 -130 -127 -321z" />
<glyph unicode="&#xd5;" d="M76 754q0 330 227 557q229 229 563 229q335 0 561 -229q230 -227 230 -555t-227 -555q-229 -226 -566 -226t-563 226q-225 225 -225 553zM401 1714q63 132 139.5 194t184.5 62q69 0 158 -47q86 -45 123 -45q36 0 62 22.5t62 81.5l209 -100q-102 -256 -301 -256 q-66 0 -155 45q-92 47 -133 47q-78 0 -140 -108zM428 756q0 -190 127 -320q127 -127 311 -127q187 0 314 127q128 131 125 320q-3 195 -129 321q-126 129 -310 129q-185 0 -311 -129q-127 -130 -127 -321z" />
<glyph unicode="&#xd6;" d="M76 754q0 330 227 557q229 229 563 229q335 0 561 -229q230 -227 230 -555t-227 -555q-229 -226 -566 -226t-563 226q-225 225 -225 553zM428 756q0 -190 127 -320q127 -127 311 -127q187 0 314 127q128 131 125 320q-3 195 -129 321q-126 129 -310 129q-185 0 -311 -129 q-127 -130 -127 -321zM453 1810q0 75 54 129t132 54t131 -52.5t53 -130.5q0 -80 -52.5 -132t-131.5 -52q-80 0 -133 52.5t-53 131.5zM918 1810q0 75 54 129t132 54q77 0 130.5 -53.5t53.5 -129.5q0 -79 -53 -131.5t-131 -52.5q-80 0 -133 52.5t-53 131.5z" />
<glyph unicode="&#xd7;" horiz-adv-x="1165" d="M82 393l301 301l-299 299l190 201l306 -303l301 303l200 -193l-305 -307l303 -301l-192 -205l-307 308l-306 -308z" />
<glyph unicode="&#xd8;" d="M76 754q0 330 227 557q229 229 563 229q195 0 373 -90l129 184l188 -129l-133 -188q234 -228 234 -561q0 -328 -227 -555q-229 -226 -566 -226q-181 0 -336 70l-125 -176l-190 129l121 172q-122 110 -190 262t-68 322zM428 756q0 -172 109 -299l503 714q-84 35 -174 35 q-185 0 -311 -129q-127 -130 -127 -321zM729 330q71 -21 137 -21q187 0 314 127q128 131 125 320q0 152 -86 270z" />
<glyph unicode="&#xd9;" horiz-adv-x="1497" d="M143 569v944h340v-929q0 -138 71.5 -210.5t195.5 -72.5q121 0 192.5 73t71.5 210v929h340v-944q0 -296 -172 -446t-432 -150q-258 0 -433 150q-174 149 -174 446zM412 2015h372l136 -387h-306z" />
<glyph unicode="&#xda;" horiz-adv-x="1497" d="M143 569v944h340v-929q0 -138 71.5 -210.5t195.5 -72.5q121 0 192.5 73t71.5 210v929h340v-944q0 -296 -172 -446t-432 -150q-258 0 -433 150q-174 149 -174 446zM590 1626l133 385h369l-201 -385h-301z" />
<glyph unicode="&#xdb;" horiz-adv-x="1497" d="M143 569v944h340v-929q0 -138 71.5 -210.5t195.5 -72.5q121 0 192.5 73t71.5 210v929h340v-944q0 -296 -172 -446t-432 -150q-258 0 -433 150q-174 149 -174 446zM299 1626l326 389h254l325 -389h-323l-133 184l-136 -184h-313z" />
<glyph unicode="&#xdc;" horiz-adv-x="1497" d="M143 569v944h340v-929q0 -138 71.5 -210.5t195.5 -72.5q121 0 192.5 73t71.5 210v929h340v-944q0 -296 -172 -446t-432 -150q-258 0 -433 150q-174 149 -174 446zM330 1810q0 75 54 129t132 54t131 -52.5t53 -130.5q0 -80 -52 -132t-132 -52t-133 52.5t-53 131.5z M795 1810q0 75 54 129t132 54q77 0 130.5 -53.5t53.5 -129.5q0 -79 -53 -131.5t-131 -52.5q-80 0 -133 52.5t-53 131.5z" />
<glyph unicode="&#xdd;" horiz-adv-x="1419" d="M18 1513h396l295 -626l301 626h395l-526 -995v-518h-338v518zM549 1626l133 385h369l-201 -385h-301z" />
<glyph unicode="&#xde;" horiz-adv-x="1355" d="M160 0v1513h338v-237h252q112 0 203.5 -28.5t152.5 -76.5t103 -113t60.5 -136.5t18.5 -149.5q0 -212 -141 -356q-139 -142 -422 -142h-227v-274h-338zM498 584h235q100 0 153.5 54.5t53.5 137.5q0 80 -52 132.5t-140 52.5h-250v-377z" />
<glyph unicode="&#xdf;" horiz-adv-x="1382" d="M123 -362v1345q0 167 55 294.5t150 195.5q176 129 391 129q226 0 373 -129t147 -322q0 -226 -195 -338q124 -41 197.5 -149.5t73.5 -245.5q0 -195 -146 -326q-144 -129 -370 -129q-147 0 -262 47l63 269q76 -29 158 -29q104 0 168.5 54.5t64.5 139.5q0 98 -88.5 150.5 t-243.5 52.5v252q113 0 181.5 60.5t68.5 150.5q0 80 -56.5 132t-147.5 52q-121 0 -190 -93t-69 -255v-1308h-323z" />
<glyph unicode="&#xe0;" horiz-adv-x="1398" d="M68 567q0 250 157 418q156 166 396 166q202 0 346 -147v118h303v-1122h-303v115q-144 -144 -346 -144q-242 0 -398 170q-155 171 -155 426zM367 1653h350l129 -367h-287zM389 563q0 -124 80 -213q83 -86 207 -86q125 0 207 88q84 90 84 211q0 122 -84 209q-83 86 -207 86 t-207 -86q-80 -86 -80 -209z" />
<glyph unicode="&#xe1;" horiz-adv-x="1398" d="M68 567q0 250 157 418q156 166 396 166q202 0 346 -147v118h303v-1122h-303v115q-144 -144 -346 -144q-242 0 -398 170q-155 171 -155 426zM389 563q0 -124 80 -213q83 -86 207 -86q125 0 207 88q84 90 84 211q0 122 -84 209q-83 86 -207 86t-207 -86q-80 -86 -80 -209z M551 1286l127 367h352l-192 -367h-287z" />
<glyph unicode="&#xe2;" horiz-adv-x="1398" d="M68 567q0 250 157 418q156 166 396 166q202 0 346 -147v118h303v-1122h-303v115q-144 -144 -346 -144q-242 0 -398 170q-155 171 -155 426zM270 1284l310 371h241l309 -371h-307l-127 176l-129 -176h-297zM389 563q0 -124 80 -213q83 -86 207 -86q125 0 207 88 q84 90 84 211q0 122 -84 209q-83 86 -207 86t-207 -86q-80 -86 -80 -209z" />
<glyph unicode="&#xe3;" horiz-adv-x="1398" d="M68 567q0 250 157 418q156 166 396 166q202 0 346 -147v118h303v-1122h-303v115q-144 -144 -346 -144q-242 0 -398 170q-155 171 -155 426zM250 1368q61 127 135 187.5t178 60.5q71 0 154 -45q85 -43 119 -43q35 0 61.5 22t58.5 78l203 -96q-47 -121 -122 -185.5 t-169 -64.5q-67 0 -153 45t-127 45q-77 0 -135 -104zM389 563q0 -124 80 -213q83 -86 207 -86q125 0 207 88q84 90 84 211q0 122 -84 209q-83 86 -207 86t-207 -86q-80 -86 -80 -209z" />
<glyph unicode="&#xe4;" horiz-adv-x="1398" d="M68 567q0 250 157 418q156 166 396 166q202 0 346 -147v118h303v-1122h-303v115q-144 -144 -346 -144q-242 0 -398 170q-155 171 -155 426zM295 1446q0 75 53 127.5t131 52.5t130.5 -52.5t52.5 -127.5q0 -79 -52.5 -130.5t-130.5 -51.5q-80 0 -132 51.5t-52 130.5z M389 563q0 -124 80 -213q83 -86 207 -86q125 0 207 88q84 90 84 211q0 122 -84 209q-83 86 -207 86t-207 -86q-80 -86 -80 -209zM754 1446q0 75 53 127.5t131 52.5t130 -52t52 -128q0 -79 -52 -130.5t-130 -51.5q-80 0 -132 51.5t-52 130.5z" />
<glyph unicode="&#xe5;" horiz-adv-x="1398" d="M68 567q0 250 157 418q156 166 396 166q202 0 346 -147v118h303v-1122h-303v115q-144 -144 -346 -144q-242 0 -398 170q-155 171 -155 426zM389 563q0 -124 80 -213q83 -86 207 -86q125 0 207 88q84 90 84 211q0 122 -84 209q-83 86 -207 86t-207 -86q-80 -86 -80 -209z M418 1518q0 115 82 194q83 80 200 80q118 0 201 -80q84 -81 84 -194q0 -112 -84 -193q-83 -80 -201 -80q-116 0 -200 78q-82 79 -82 195zM594 1522q0 -44 31 -75.5t75 -31.5q43 0 74 31.5t31 75.5q0 42 -31 72t-74 30q-44 0 -75 -29.5t-31 -72.5z" />
<glyph unicode="&#xe6;" horiz-adv-x="1998" d="M55 338q0 97 44.5 169t123.5 109q150 72 359 72h223q-47 203 -270 203q-181 0 -330 -96l-105 223q94 60 220 96.5t243 36.5q271 0 402 -180q162 180 428 180q232 0 385 -141q155 -140 155 -404q0 -84 -12 -139l-801 2q25 -106 102 -168.5t191 -62.5q175 0 330 110 l135 -215q-211 -158 -483 -158q-309 0 -465 211q-156 -211 -449 -211q-198 0 -312 100t-114 263zM356 352q0 -53 44.5 -83.5t119.5 -30.5q103 0 182.5 60.5t104.5 172.5h-217q-234 0 -234 -119zM1124 688h525q-19 96 -88 150.5t-168 54.5t-171 -54.5t-98 -150.5z" />
<glyph unicode="&#xe7;" horiz-adv-x="1239" d="M68 563q0 260 168 422q169 166 434 166q176 0 318 -84.5t210 -235.5l-256 -137q-100 160 -266 160q-123 0 -207 -84q-82 -82 -82 -207q0 -128 80 -211q82 -82 205 -82q84 0 156 44t108 114l260 -154q-63 -119 -178 -195.5t-262 -96.5l-33 -80q94 -6 156.5 -64t62.5 -147 q0 -107 -84 -179.5t-227 -72.5q-125 0 -260 63l65 181q87 -43 166 -43q49 0 77 20.5t28 52.5q0 68 -117 68h-109l-16 59l59 150q-208 40 -334 196q-122 155 -122 377z" />
<glyph unicode="&#xe8;" horiz-adv-x="1294" d="M70 563q0 254 163 420q162 168 429 168q246 0 407 -152q160 -151 160 -411q0 -50 -10 -135h-826q58 -211 305 -211q192 0 351 108l127 -219q-206 -156 -492 -156q-298 0 -457 170q-157 171 -157 418zM340 1651h350l129 -367h-287zM391 682h529q-23 98 -91 153.5 t-167 55.5t-172 -55.5t-99 -153.5z" />
<glyph unicode="&#xe9;" horiz-adv-x="1294" d="M70 563q0 254 163 420q162 168 429 168q246 0 407 -152q160 -151 160 -411q0 -50 -10 -135h-826q58 -211 305 -211q192 0 351 108l127 -219q-206 -156 -492 -156q-298 0 -457 170q-157 171 -157 418zM391 682h529q-23 98 -91 153.5t-167 55.5t-172 -55.5t-99 -153.5z M500 1286l127 367h352l-193 -367h-286z" />
<glyph unicode="&#xea;" horiz-adv-x="1294" d="M70 563q0 254 163 420q162 168 429 168q246 0 407 -152q160 -151 160 -411q0 -50 -10 -135h-826q58 -211 305 -211q192 0 351 108l127 -219q-206 -156 -492 -156q-298 0 -457 170q-157 171 -157 418zM233 1290l310 371h241l310 -371h-308l-127 176l-129 -176h-297z M391 682h529q-23 98 -91 153.5t-167 55.5t-172 -55.5t-99 -153.5z" />
<glyph unicode="&#xeb;" horiz-adv-x="1294" d="M70 563q0 254 163 420q162 168 429 168q246 0 407 -152q160 -151 160 -411q0 -50 -10 -135h-826q58 -211 305 -211q192 0 351 108l127 -219q-206 -156 -492 -156q-298 0 -457 170q-157 171 -157 418zM268 1434q0 75 53.5 127.5t131.5 52.5q77 0 129.5 -52t52.5 -128 q0 -79 -52 -131t-130 -52q-80 0 -132.5 52t-52.5 131zM391 682h529q-23 98 -91 153.5t-167 55.5t-172 -55.5t-99 -153.5zM727 1434q0 75 53 127.5t131 52.5t130.5 -52.5t52.5 -127.5q0 -79 -52.5 -131t-130.5 -52q-80 0 -132 52t-52 131z" />
<glyph unicode="&#xec;" horiz-adv-x="575" d="M-39 1651h350l129 -367h-286zM129 0v1122h322v-1122h-322z" />
<glyph unicode="&#xed;" horiz-adv-x="561" d="M123 0v1122h321v-1122h-321zM135 1286l127 367h352l-192 -367h-287z" />
<glyph unicode="&#xee;" horiz-adv-x="569" d="M-137 1284l309 371h242l309 -371h-307l-127 176l-129 -176h-297zM129 0v1122h322v-1122h-322z" />
<glyph unicode="&#xef;" horiz-adv-x="569" d="M-123 1444q0 75 53 127.5t131 52.5t130.5 -52.5t52.5 -127.5q0 -79 -52.5 -130.5t-130.5 -51.5q-80 0 -132 51.5t-52 130.5zM129 0v1122h322v-1122h-322zM336 1444q0 75 53 127.5t131 52.5t130 -52t52 -128q0 -79 -52 -130.5t-130 -51.5q-80 0 -132 51.5t-52 130.5z" />
<glyph unicode="&#xf0;" horiz-adv-x="1341" d="M66 516q0 229 155 375q156 147 363 147q222 0 348 -184q-52 210 -189 385l-161 -119l-117 146l153 110q-86 86 -196 172l227 215q124 -93 225 -202l164 118l111 -145l-154 -113q269 -349 269 -714q0 -315 -181 -523q-182 -209 -460 -209q-246 0 -402 156 q-155 155 -155 385zM389 520q0 -106 72 -184q73 -76 182 -76q108 0 184 76t76 190q0 110 -76 183q-73 73 -180 73q-110 0 -184 -75.5t-74 -186.5z" />
<glyph unicode="&#xf1;" horiz-adv-x="1335" d="M123 0v1122h313v-155q46 82 141.5 134t213.5 52q182 0 309 -121t127 -346v-686h-322v602q0 121 -59 188.5t-160 67.5q-109 0 -175.5 -72.5t-66.5 -191.5v-594h-321zM225 1370q61 127 135.5 187.5t178.5 60.5q70 0 153 -45q85 -43 119 -43q35 0 62 22t59 78l203 -96 q-47 -121 -122 -185.5t-169 -64.5q-68 0 -154 45t-127 45q-77 0 -135 -104z" />
<glyph unicode="&#xf2;" horiz-adv-x="1345" d="M68 561q0 252 168 420q169 172 436 172q269 0 438 -172q170 -170 170 -420q0 -249 -170 -422q-170 -170 -438 -170q-266 0 -436 170q-168 171 -168 422zM350 1651h350l129 -367h-286zM387 563q0 -126 82 -211q84 -84 203 -84q118 0 202 84q84 87 84 211q0 121 -84 205 q-83 86 -202 86q-120 0 -203 -86q-82 -82 -82 -205z" />
<glyph unicode="&#xf3;" horiz-adv-x="1345" d="M68 561q0 252 168 420q169 172 436 172q269 0 438 -172q170 -170 170 -420q0 -249 -170 -422q-170 -170 -438 -170q-266 0 -436 170q-168 171 -168 422zM387 563q0 -126 82 -211q84 -84 203 -84q118 0 202 84q84 87 84 211q0 121 -84 205q-83 86 -202 86q-120 0 -203 -86 q-82 -82 -82 -205zM514 1286l127 367h352l-192 -367h-287z" />
<glyph unicode="&#xf4;" horiz-adv-x="1345" d="M68 561q0 252 168 420q169 172 436 172q269 0 438 -172q170 -170 170 -420q0 -249 -170 -422q-170 -170 -438 -170q-266 0 -436 170q-168 171 -168 422zM242 1286l309 371h242l309 -371h-307l-127 176l-129 -176h-297zM387 563q0 -126 82 -211q84 -84 203 -84 q118 0 202 84q84 87 84 211q0 121 -84 205q-83 86 -202 86q-120 0 -203 -86q-82 -82 -82 -205z" />
<glyph unicode="&#xf5;" horiz-adv-x="1345" d="M68 561q0 252 168 420q169 172 436 172q269 0 438 -172q170 -170 170 -420q0 -249 -170 -422q-170 -170 -438 -170q-266 0 -436 170q-168 171 -168 422zM223 1370q61 127 135.5 187.5t178.5 60.5q70 0 153 -45q85 -43 119 -43q35 0 62 22t59 78l203 -96 q-47 -121 -122 -185.5t-169 -64.5q-68 0 -154 45t-127 45q-77 0 -135 -104zM387 563q0 -126 82 -211q84 -84 203 -84q118 0 202 84q84 87 84 211q0 121 -84 205q-83 86 -202 86q-120 0 -203 -86q-82 -82 -82 -205z" />
<glyph unicode="&#xf6;" horiz-adv-x="1345" d="M68 561q0 252 168 420q169 172 436 172q269 0 438 -172q170 -170 170 -420q0 -249 -170 -422q-170 -170 -438 -170q-266 0 -436 170q-168 171 -168 422zM260 1444q0 75 53 127.5t131 52.5t130.5 -52.5t52.5 -127.5q0 -79 -52.5 -130.5t-130.5 -51.5q-80 0 -132 51.5 t-52 130.5zM387 563q0 -126 82 -211q84 -84 203 -84q118 0 202 84q84 87 84 211q0 121 -84 205q-83 86 -202 86q-120 0 -203 -86q-82 -82 -82 -205zM719 1444q0 75 53 127.5t131 52.5q77 0 129.5 -52t52.5 -128q0 -79 -52 -130.5t-130 -51.5q-80 0 -132 51.5t-52 130.5z" />
<glyph unicode="&#xf7;" horiz-adv-x="1134" d="M80 578v266h975v-266h-975zM397 1102q0 72 49 120t121 48q68 0 117 -49.5t49 -118.5q0 -71 -49 -119.5t-117 -48.5q-72 0 -121 48t-49 120zM399 324q0 72 49 120t121 48q68 0 117 -49.5t49 -118.5q0 -71 -49 -119.5t-117 -48.5q-72 0 -121 48t-49 120z" />
<glyph unicode="&#xf8;" horiz-adv-x="1345" d="M68 561q0 252 168 420q169 172 436 172q143 0 264 -53l102 149l144 -92l-103 -147q201 -174 201 -449q0 -249 -170 -422q-170 -170 -438 -170q-146 0 -271 58l-110 -162l-139 94l108 158q-192 171 -192 444zM387 563q0 -103 57 -178l314 457q-40 12 -86 12 q-120 0 -203 -86q-82 -82 -82 -205zM580 283q50 -15 92 -15q118 0 202 84q84 87 84 211q0 103 -61 182z" />
<glyph unicode="&#xf9;" horiz-adv-x="1269" d="M109 481v641h321v-643q0 -98 54.5 -155.5t150.5 -57.5t150.5 57.5t54.5 155.5v643h321v-641q0 -243 -139 -376.5t-387 -133.5q-246 0 -386 135t-140 375zM313 1653h351l129 -367h-287z" />
<glyph unicode="&#xfa;" horiz-adv-x="1269" d="M109 481v641h321v-643q0 -98 54.5 -155.5t150.5 -57.5t150.5 57.5t54.5 155.5v643h321v-641q0 -243 -139 -376.5t-387 -133.5q-246 0 -386 135t-140 375zM483 1286l127 367h353l-193 -367h-287z" />
<glyph unicode="&#xfb;" horiz-adv-x="1269" d="M109 481v641h321v-643q0 -98 54.5 -155.5t150.5 -57.5t150.5 57.5t54.5 155.5v643h321v-641q0 -243 -139 -376.5t-387 -133.5q-246 0 -386 135t-140 375zM209 1288l309 371h242l309 -371h-307l-127 176l-129 -176h-297z" />
<glyph unicode="&#xfc;" horiz-adv-x="1269" d="M109 481v641h321v-643q0 -98 54.5 -155.5t150.5 -57.5t150.5 57.5t54.5 155.5v643h321v-641q0 -243 -139 -376.5t-387 -133.5q-246 0 -386 135t-140 375zM223 1442q0 75 53.5 127.5t131.5 52.5t130 -52t52 -128q0 -79 -52 -130.5t-130 -51.5q-80 0 -132.5 51.5 t-52.5 130.5zM682 1442q0 75 53 127.5t131 52.5t130.5 -52.5t52.5 -127.5q0 -79 -52.5 -130.5t-130.5 -51.5q-80 0 -132 51.5t-52 130.5z" />
<glyph unicode="&#xfd;" horiz-adv-x="1257" d="M12 1122h371l270 -694l242 694h348l-444 -1153q-88 -227 -208.5 -336.5t-297.5 -109.5q-138 0 -227 59l59 266q69 -38 145 -38q135 0 217 172l15 32zM477 1284l127 367h352l-192 -367h-287z" />
<glyph unicode="&#xfe;" horiz-adv-x="1404" d="M123 -463v2022h317v-558q138 150 336 150q239 0 402 -172q161 -167 161 -416q0 -247 -161 -420q-163 -172 -398 -172q-192 0 -336 150v-584h-321zM436 561q0 -126 80.5 -210.5t204.5 -84.5t205 84q82 85 82 211q0 125 -82 207q-80 86 -205 86t-205 -86q-80 -83 -80 -207z " />
<glyph unicode="&#xff;" horiz-adv-x="1257" d="M12 1122h371l270 -694l242 694h348l-444 -1153q-88 -227 -208.5 -336.5t-297.5 -109.5q-138 0 -227 59l59 266q69 -38 145 -38q135 0 217 172l15 32zM231 1444q0 75 53.5 127.5t131.5 52.5t130 -52t52 -128q0 -79 -52 -130.5t-130 -51.5q-80 0 -132.5 51.5t-52.5 130.5z M690 1444q0 75 53 127.5t131 52.5t130.5 -52.5t52.5 -127.5q0 -79 -52.5 -130.5t-130.5 -51.5q-80 0 -132 51.5t-52 130.5z" />
<glyph unicode="&#x152;" horiz-adv-x="2134" d="M82 756q0 341 194 553q196 211 576 211q51 0 123 -7h1053v-315h-717v-280h663v-314h-663v-289h714v-315h-1040q-65 -6 -123 -6q-383 0 -583 209q-197 212 -197 553zM434 758q0 -183 105 -312t329 -129q54 0 101 9v862q-41 8 -101 8q-94 0 -169 -25.5t-124 -67.5 t-81.5 -99.5t-46 -118t-13.5 -127.5z" />
<glyph unicode="&#x153;" horiz-adv-x="2179" d="M68 563q0 248 165 416q170 170 433 170q266 0 438 -178q168 180 442 180q247 0 408 -152q160 -151 160 -411q0 -42 -11 -135h-825q58 -211 305 -211q191 0 350 108l127 -219q-206 -156 -491 -156q-299 0 -463 179q-173 -179 -440 -179q-263 0 -433 170q-165 168 -165 418 zM381 565q0 -126 82 -211q84 -84 203 -84q118 0 202 84q82 85 82 211q0 121 -84 205t-200 84q-119 0 -203 -84q-82 -82 -82 -205zM1276 682h528q-23 98 -91 153.5t-167 55.5t-171.5 -55.5t-98.5 -153.5z" />
<glyph unicode="&#x178;" horiz-adv-x="1419" d="M18 1513h396l295 -626l301 626h395l-526 -995v-518h-338v518zM291 1810q0 75 54 129t132 54t131.5 -52.5t53.5 -130.5q0 -79 -52.5 -131.5t-132.5 -52.5t-133 52.5t-53 131.5zM756 1810q0 75 54 129t132 54q77 0 130.5 -53.5t53.5 -129.5q0 -79 -53 -131.5t-131 -52.5 q-80 0 -133 52.5t-53 131.5z" />
<glyph unicode="&#x2c6;" horiz-adv-x="1140" d="M80 1270l309 370h242l309 -370h-307l-127 176l-129 -176h-297z" />
<glyph unicode="&#x2dc;" horiz-adv-x="1140" d="M82 1378q61 127 135 187.5t178 60.5q71 0 154 -45q85 -43 119 -43q35 0 61.5 22t58.5 78l203 -96q-47 -121 -122 -185.5t-169 -64.5q-67 0 -153 45t-127 45q-77 0 -135 -104z" />
<glyph unicode="&#x2000;" horiz-adv-x="1083" />
<glyph unicode="&#x2001;" horiz-adv-x="2167" />
<glyph unicode="&#x2002;" horiz-adv-x="1083" />
<glyph unicode="&#x2003;" horiz-adv-x="2167" />
<glyph unicode="&#x2004;" horiz-adv-x="722" />
<glyph unicode="&#x2005;" horiz-adv-x="541" />
<glyph unicode="&#x2006;" horiz-adv-x="361" />
<glyph unicode="&#x2007;" horiz-adv-x="361" />
<glyph unicode="&#x2008;" horiz-adv-x="270" />
<glyph unicode="&#x2009;" horiz-adv-x="433" />
<glyph unicode="&#x200a;" horiz-adv-x="120" />
<glyph unicode="&#x2010;" horiz-adv-x="1095" d="M119 418v299h858v-299h-858z" />
<glyph unicode="&#x2011;" horiz-adv-x="1095" d="M119 418v299h858v-299h-858z" />
<glyph unicode="&#x2012;" horiz-adv-x="1095" d="M119 418v299h858v-299h-858z" />
<glyph unicode="&#x2013;" horiz-adv-x="1476" d="M119 418v299h1241v-299h-1241z" />
<glyph unicode="&#x2014;" horiz-adv-x="2129" d="M119 418v299h1894v-299h-1894z" />
<glyph unicode="&#x2018;" horiz-adv-x="526" d="M59 1268q0 226 320 432l88 -127q-148 -112 -186 -172q62 0 107.5 -48t45.5 -114q0 -74 -54 -126t-130 -52q-82 0 -136.5 59.5t-54.5 147.5z" />
<glyph unicode="&#x2019;" horiz-adv-x="522" d="M68 1176q148 112 186 172q-63 0 -108.5 47.5t-45.5 113.5q0 75 54 127t129 52q82 0 137 -58.5t55 -148.5q0 -225 -319 -430z" />
<glyph unicode="&#x201a;" horiz-adv-x="540" d="M51 -188q150 114 187 172q-63 0 -108.5 47.5t-45.5 113.5q0 75 53.5 127t128.5 52q82 0 137.5 -58.5t55.5 -148.5q0 -224 -320 -430z" />
<glyph unicode="&#x201c;" horiz-adv-x="1050" d="M63 1268q0 226 320 432l88 -127q-148 -112 -186 -172q62 0 107.5 -48t45.5 -114q0 -74 -54 -126t-130 -52q-82 0 -136.5 59.5t-54.5 147.5zM586 1268q0 227 319 432l88 -127q-148 -112 -186 -172q62 0 108 -48t46 -114q0 -74 -54.5 -126t-130.5 -52q-81 0 -135.5 59.5 t-54.5 147.5z" />
<glyph unicode="&#x201d;" horiz-adv-x="1040" d="M63 1184q150 114 187 172q-62 0 -108 48t-46 114q0 74 54.5 126t130.5 52q81 0 135.5 -59.5t54.5 -147.5q0 -227 -319 -432zM586 1184q148 112 186 172q-62 0 -108 48t-46 114q0 74 54.5 126t130.5 52q81 0 135.5 -59.5t54.5 -147.5q0 -227 -319 -432z" />
<glyph unicode="&#x201e;" horiz-adv-x="1058" d="M45 -190q148 112 186 172q-62 0 -107.5 47.5t-45.5 113.5q0 75 54.5 127t129.5 52q82 0 136.5 -59.5t54.5 -147.5q0 -226 -320 -432zM567 -190q150 114 187 172q-62 0 -108 47.5t-46 113.5q0 75 54.5 127t129.5 52q82 0 136.5 -59.5t54.5 -147.5q0 -226 -320 -432z" />
<glyph unicode="&#x2022;" horiz-adv-x="966" d="M127 696q0 150 104 254q105 105 250 105q149 0 254 -105q107 -104 107 -254q0 -148 -107 -252q-104 -104 -254 -104q-146 0 -250 104t-104 252z" />
<glyph unicode="&#x2026;" horiz-adv-x="1556" d="M80 147q0 75 52 127t130 52q73 0 124.5 -52.5t51.5 -126.5q0 -77 -51 -128.5t-125 -51.5q-78 0 -130 51t-52 129zM598 147q0 75 52 127t130 52q72 0 124 -53t52 -126q0 -77 -51 -128.5t-125 -51.5q-78 0 -130 51t-52 129zM1118 147q0 75 52 127t130 52q72 0 124.5 -53 t52.5 -126q0 -77 -51.5 -128.5t-125.5 -51.5q-78 0 -130 51t-52 129z" />
<glyph unicode="&#x202f;" horiz-adv-x="433" />
<glyph unicode="&#x2039;" horiz-adv-x="761" d="M61 596l275 416h338l-285 -416l285 -416h-338z" />
<glyph unicode="&#x203a;" horiz-adv-x="761" d="M88 180l285 416l-285 416h338l274 -416l-274 -416h-338z" />
<glyph unicode="&#x205f;" horiz-adv-x="541" />
<glyph unicode="&#x20ac;" horiz-adv-x="1583" d="M55 502l82 205h131q-4 49 0 98h-174l82 205h127q70 240 264 385q195 145 451 145q135 0 268.5 -38t224.5 -103l-157 -266q-133 92 -289 92q-120 0 -220 -57t-161 -158h672l-92 -205h-646q-4 -49 0 -98h615l-84 -205h-465q61 -98 159 -153.5t218 -55.5q89 0 190.5 28 t175.5 70v-319q-74 -42 -189 -68.5t-220 -26.5q-254 0 -447 144q-195 145 -268 381h-248z" />
<glyph unicode="&#x2122;" horiz-adv-x="1673" d="M66 1335v178h579v-178h-196v-538h-187v538h-196zM719 797v716h143l260 -376l267 376h141v-716h-182v350l-185 -258h-78l-182 254v-346h-184z" />
<glyph unicode="&#x25fc;" horiz-adv-x="1126" d="M0 0v1126h1126v-1126h-1126z" />
<glyph unicode="&#xfb01;" horiz-adv-x="1511" d="M59 856v266h166v8q0 236 117 360t324 124q166 0 311 -80l-84 -248q-101 49 -172 49q-83 0 -129.5 -47.5t-46.5 -134.5v-31h348v-266h-348v-856h-320v856h-166zM1036 1430q0 81 55.5 135.5t137.5 54.5q80 0 135 -54.5t55 -135.5t-55 -136t-135 -55q-82 0 -137.5 54.5 t-55.5 136.5zM1065 0v1122h321v-1122h-321z" />
<glyph unicode="&#xfb02;" horiz-adv-x="1480" d="M59 856v266h166v8q0 484 432 484q158 0 306 -80l-70 -248q-101 49 -172 49q-83 0 -129.5 -47.5t-46.5 -134.5v-31h348v-266h-348v-856h-320v856h-166zM1036 0v1559h322v-1559h-322z" />
<glyph unicode="&#xfb03;" horiz-adv-x="2367" d="M59 856v266h166v33q0 229 137 342q138 117 357 117q169 0 358 -88l-100 -248q-131 55 -215 55q-99 0 -158 -48.5t-59 -133.5v-29h538v8q0 236 117 360t324 124q166 0 311 -80l-86 -248q-98 49 -170 49q-83 0 -129.5 -47.5t-46.5 -134.5v-31h385v-266h-385v-856h-320v856 h-538v-856h-320v856h-166zM1892 1430q0 81 56.5 135.5t138.5 54.5q80 0 135 -54.5t55 -135.5t-55 -136t-135 -55q-84 0 -139.5 54.5t-55.5 136.5zM1923 0v1122h322v-1122h-322z" />
</font>
</defs>
</svg>
